<mxfile host="app.diagrams.net" agent="Mozilla/5.0 (Windows NT 10.0; Win64; x64) AppleWebKit/537.36 (KHTML, like Gecko) Chrome/139.0.0.0 Safari/537.36" version="28.1.0">
  <diagram name="Страница — 1" id="EeI7lke3yfQYJo21RA2X">
    <mxGraphModel dx="928" dy="568" grid="1" gridSize="10" guides="1" tooltips="1" connect="1" arrows="1" fold="1" page="1" pageScale="1" pageWidth="827" pageHeight="1169" math="0" shadow="0">
      <root>
        <mxCell id="0" />
        <mxCell id="1" parent="0" />
        <mxCell id="bACAEZO8ZDjsCbGs88Zj-11" value="" style="rounded=1;whiteSpace=wrap;html=1;fillColor=#fff2cc;strokeColor=#d6b656;" vertex="1" parent="1">
          <mxGeometry x="40" y="190" width="370" height="60" as="geometry" />
        </mxCell>
        <mxCell id="bACAEZO8ZDjsCbGs88Zj-3" value="" style="rounded=1;whiteSpace=wrap;html=1;fillColor=#fff2cc;strokeColor=#d6b656;" vertex="1" parent="1">
          <mxGeometry x="60" y="110" width="200" height="60" as="geometry" />
        </mxCell>
        <mxCell id="4u8jQhU3DIH0BIZeHELQ-29" value="" style="rounded=1;whiteSpace=wrap;html=1;fillColor=#ffe6cc;strokeColor=#d79b00;" parent="1" vertex="1">
          <mxGeometry x="280" y="110" width="520" height="60" as="geometry" />
        </mxCell>
        <mxCell id="4u8jQhU3DIH0BIZeHELQ-28" value="" style="rounded=1;whiteSpace=wrap;html=1;fillColor=#ffe6cc;strokeColor=#d79b00;" parent="1" vertex="1">
          <mxGeometry x="450" y="30" width="350" height="60" as="geometry" />
        </mxCell>
        <mxCell id="4u8jQhU3DIH0BIZeHELQ-27" value="" style="rounded=1;whiteSpace=wrap;html=1;fillColor=#f8cecc;strokeColor=#b85450;" parent="1" vertex="1">
          <mxGeometry x="130" y="30" width="300" height="60" as="geometry" />
        </mxCell>
        <mxCell id="4u8jQhU3DIH0BIZeHELQ-4" style="edgeStyle=orthogonalEdgeStyle;rounded=0;orthogonalLoop=1;jettySize=auto;html=1;exitX=1;exitY=0.5;exitDx=0;exitDy=0;entryX=0;entryY=0.5;entryDx=0;entryDy=0;" parent="1" source="4u8jQhU3DIH0BIZeHELQ-2" target="4u8jQhU3DIH0BIZeHELQ-3" edge="1">
          <mxGeometry relative="1" as="geometry" />
        </mxCell>
        <mxCell id="4u8jQhU3DIH0BIZeHELQ-2" value="Алгоритмы" style="rounded=1;whiteSpace=wrap;html=1;" parent="1" vertex="1">
          <mxGeometry x="40" y="40" width="80" height="40" as="geometry" />
        </mxCell>
        <mxCell id="4u8jQhU3DIH0BIZeHELQ-6" style="edgeStyle=orthogonalEdgeStyle;rounded=0;orthogonalLoop=1;jettySize=auto;html=1;exitX=1;exitY=0.5;exitDx=0;exitDy=0;entryX=0;entryY=0.5;entryDx=0;entryDy=0;" parent="1" source="4u8jQhU3DIH0BIZeHELQ-3" target="4u8jQhU3DIH0BIZeHELQ-5" edge="1">
          <mxGeometry relative="1" as="geometry" />
        </mxCell>
        <mxCell id="4u8jQhU3DIH0BIZeHELQ-3" value="Линейный поиск" style="rounded=1;whiteSpace=wrap;html=1;" parent="1" vertex="1">
          <mxGeometry x="140" y="40" width="80" height="40" as="geometry" />
        </mxCell>
        <mxCell id="4u8jQhU3DIH0BIZeHELQ-8" style="edgeStyle=orthogonalEdgeStyle;rounded=0;orthogonalLoop=1;jettySize=auto;html=1;exitX=1;exitY=0.5;exitDx=0;exitDy=0;entryX=0;entryY=0.5;entryDx=0;entryDy=0;" parent="1" source="4u8jQhU3DIH0BIZeHELQ-5" target="4u8jQhU3DIH0BIZeHELQ-7" edge="1">
          <mxGeometry relative="1" as="geometry" />
        </mxCell>
        <mxCell id="4u8jQhU3DIH0BIZeHELQ-5" value="Бинарный поиск" style="rounded=1;whiteSpace=wrap;html=1;" parent="1" vertex="1">
          <mxGeometry x="240" y="40" width="80" height="40" as="geometry" />
        </mxCell>
        <mxCell id="4u8jQhU3DIH0BIZeHELQ-11" style="edgeStyle=orthogonalEdgeStyle;rounded=0;orthogonalLoop=1;jettySize=auto;html=1;exitX=1;exitY=0.5;exitDx=0;exitDy=0;entryX=0;entryY=0.5;entryDx=0;entryDy=0;" parent="1" source="4u8jQhU3DIH0BIZeHELQ-7" target="4u8jQhU3DIH0BIZeHELQ-9" edge="1">
          <mxGeometry relative="1" as="geometry" />
        </mxCell>
        <mxCell id="4u8jQhU3DIH0BIZeHELQ-7" value="О-большое" style="rounded=1;whiteSpace=wrap;html=1;" parent="1" vertex="1">
          <mxGeometry x="340" y="40" width="80" height="40" as="geometry" />
        </mxCell>
        <mxCell id="4u8jQhU3DIH0BIZeHELQ-13" style="edgeStyle=orthogonalEdgeStyle;rounded=0;orthogonalLoop=1;jettySize=auto;html=1;exitX=1;exitY=0.5;exitDx=0;exitDy=0;entryX=0;entryY=0.5;entryDx=0;entryDy=0;" parent="1" source="4u8jQhU3DIH0BIZeHELQ-9" target="4u8jQhU3DIH0BIZeHELQ-12" edge="1">
          <mxGeometry relative="1" as="geometry" />
        </mxCell>
        <mxCell id="4u8jQhU3DIH0BIZeHELQ-9" value="Ячейки памяти компьютера" style="rounded=1;whiteSpace=wrap;html=1;" parent="1" vertex="1">
          <mxGeometry x="460" y="40" width="120" height="40" as="geometry" />
        </mxCell>
        <mxCell id="4u8jQhU3DIH0BIZeHELQ-33" style="edgeStyle=orthogonalEdgeStyle;rounded=0;orthogonalLoop=1;jettySize=auto;html=1;exitX=1;exitY=0.5;exitDx=0;exitDy=0;entryX=0;entryY=0.5;entryDx=0;entryDy=0;" parent="1" source="4u8jQhU3DIH0BIZeHELQ-12" target="4u8jQhU3DIH0BIZeHELQ-14" edge="1">
          <mxGeometry relative="1" as="geometry" />
        </mxCell>
        <mxCell id="4u8jQhU3DIH0BIZeHELQ-12" value="Массивы" style="rounded=1;whiteSpace=wrap;html=1;" parent="1" vertex="1">
          <mxGeometry x="600" y="40" width="80" height="40" as="geometry" />
        </mxCell>
        <mxCell id="4u8jQhU3DIH0BIZeHELQ-34" style="edgeStyle=orthogonalEdgeStyle;rounded=0;orthogonalLoop=1;jettySize=auto;html=1;exitX=0.5;exitY=1;exitDx=0;exitDy=0;entryX=0.5;entryY=0;entryDx=0;entryDy=0;" parent="1" source="4u8jQhU3DIH0BIZeHELQ-14" target="4u8jQhU3DIH0BIZeHELQ-16" edge="1">
          <mxGeometry relative="1" as="geometry" />
        </mxCell>
        <mxCell id="4u8jQhU3DIH0BIZeHELQ-14" value="Связанные списки" style="rounded=1;whiteSpace=wrap;html=1;" parent="1" vertex="1">
          <mxGeometry x="710" y="40" width="80" height="40" as="geometry" />
        </mxCell>
        <mxCell id="4u8jQhU3DIH0BIZeHELQ-19" style="edgeStyle=orthogonalEdgeStyle;rounded=0;orthogonalLoop=1;jettySize=auto;html=1;exitX=0;exitY=0.5;exitDx=0;exitDy=0;entryX=1;entryY=0.5;entryDx=0;entryDy=0;" parent="1" source="4u8jQhU3DIH0BIZeHELQ-16" target="4u8jQhU3DIH0BIZeHELQ-17" edge="1">
          <mxGeometry relative="1" as="geometry" />
        </mxCell>
        <mxCell id="4u8jQhU3DIH0BIZeHELQ-16" value="Индексы / указатели" style="rounded=1;whiteSpace=wrap;html=1;" parent="1" vertex="1">
          <mxGeometry x="710" y="120" width="80" height="40" as="geometry" />
        </mxCell>
        <mxCell id="4u8jQhU3DIH0BIZeHELQ-22" style="edgeStyle=orthogonalEdgeStyle;rounded=0;orthogonalLoop=1;jettySize=auto;html=1;exitX=0;exitY=0.5;exitDx=0;exitDy=0;entryX=1;entryY=0.5;entryDx=0;entryDy=0;" parent="1" source="4u8jQhU3DIH0BIZeHELQ-17" target="4u8jQhU3DIH0BIZeHELQ-20" edge="1">
          <mxGeometry relative="1" as="geometry" />
        </mxCell>
        <mxCell id="4u8jQhU3DIH0BIZeHELQ-17" value="Чтение / вставка / удаление в массивах и списках" style="rounded=1;whiteSpace=wrap;html=1;" parent="1" vertex="1">
          <mxGeometry x="530" y="120" width="160" height="40" as="geometry" />
        </mxCell>
        <mxCell id="4u8jQhU3DIH0BIZeHELQ-25" style="edgeStyle=orthogonalEdgeStyle;rounded=0;orthogonalLoop=1;jettySize=auto;html=1;exitX=0;exitY=0.5;exitDx=0;exitDy=0;entryX=1;entryY=0.5;entryDx=0;entryDy=0;" parent="1" source="4u8jQhU3DIH0BIZeHELQ-20" target="4u8jQhU3DIH0BIZeHELQ-23" edge="1">
          <mxGeometry relative="1" as="geometry" />
        </mxCell>
        <mxCell id="4u8jQhU3DIH0BIZeHELQ-20" value="Массив связанных списков" style="rounded=1;whiteSpace=wrap;html=1;" parent="1" vertex="1">
          <mxGeometry x="390" y="120" width="120" height="40" as="geometry" />
        </mxCell>
        <mxCell id="bACAEZO8ZDjsCbGs88Zj-4" style="edgeStyle=orthogonalEdgeStyle;rounded=0;orthogonalLoop=1;jettySize=auto;html=1;exitX=0;exitY=0.5;exitDx=0;exitDy=0;entryX=1;entryY=0.5;entryDx=0;entryDy=0;" edge="1" parent="1" source="4u8jQhU3DIH0BIZeHELQ-23" target="bACAEZO8ZDjsCbGs88Zj-1">
          <mxGeometry relative="1" as="geometry" />
        </mxCell>
        <mxCell id="4u8jQhU3DIH0BIZeHELQ-23" value="Сортировка выбором" style="rounded=1;whiteSpace=wrap;html=1;" parent="1" vertex="1">
          <mxGeometry x="290" y="120" width="80" height="40" as="geometry" />
        </mxCell>
        <mxCell id="bACAEZO8ZDjsCbGs88Zj-5" style="edgeStyle=orthogonalEdgeStyle;rounded=0;orthogonalLoop=1;jettySize=auto;html=1;exitX=0;exitY=0.5;exitDx=0;exitDy=0;entryX=1;entryY=0.5;entryDx=0;entryDy=0;" edge="1" parent="1" source="bACAEZO8ZDjsCbGs88Zj-1" target="bACAEZO8ZDjsCbGs88Zj-2">
          <mxGeometry relative="1" as="geometry" />
        </mxCell>
        <mxCell id="bACAEZO8ZDjsCbGs88Zj-1" value="Псевдокод" style="rounded=1;whiteSpace=wrap;html=1;" vertex="1" parent="1">
          <mxGeometry x="170" y="120" width="80" height="40" as="geometry" />
        </mxCell>
        <mxCell id="bACAEZO8ZDjsCbGs88Zj-8" style="edgeStyle=orthogonalEdgeStyle;rounded=0;orthogonalLoop=1;jettySize=auto;html=1;exitX=0.5;exitY=1;exitDx=0;exitDy=0;entryX=0.5;entryY=0;entryDx=0;entryDy=0;" edge="1" parent="1" source="bACAEZO8ZDjsCbGs88Zj-2" target="bACAEZO8ZDjsCbGs88Zj-6">
          <mxGeometry relative="1" as="geometry" />
        </mxCell>
        <mxCell id="bACAEZO8ZDjsCbGs88Zj-2" value="Рекурсия" style="rounded=1;whiteSpace=wrap;html=1;" vertex="1" parent="1">
          <mxGeometry x="70" y="120" width="80" height="40" as="geometry" />
        </mxCell>
        <mxCell id="bACAEZO8ZDjsCbGs88Zj-10" style="edgeStyle=orthogonalEdgeStyle;rounded=0;orthogonalLoop=1;jettySize=auto;html=1;exitX=1;exitY=0.5;exitDx=0;exitDy=0;entryX=0;entryY=0.5;entryDx=0;entryDy=0;" edge="1" parent="1" source="bACAEZO8ZDjsCbGs88Zj-6" target="bACAEZO8ZDjsCbGs88Zj-9">
          <mxGeometry relative="1" as="geometry" />
        </mxCell>
        <mxCell id="bACAEZO8ZDjsCbGs88Zj-6" value="Базовый случай и рекурсивный случай" style="rounded=1;whiteSpace=wrap;html=1;" vertex="1" parent="1">
          <mxGeometry x="50" y="200" width="120" height="40" as="geometry" />
        </mxCell>
        <mxCell id="bACAEZO8ZDjsCbGs88Zj-9" value="Стек" style="rounded=1;whiteSpace=wrap;html=1;" vertex="1" parent="1">
          <mxGeometry x="190" y="200" width="50" height="40" as="geometry" />
        </mxCell>
      </root>
    </mxGraphModel>
  </diagram>
</mxfile>
